# xmcd
#
# Track frame offsets: 
#        150
#        18515
#        36765
#        54756
#        72873
#        91115
#        109474
#        124891
#        141163
#        158326
#        169356
#        180903
#
# Disc length: 2721 seconds
#
# Revision: 0
# Processed by: cddbd v1.5.1PL0 Copyright (c) Steve Scherf et al.
# Submitted via: ExactAudioCopy v0.95b3
#
DISCID=950a9f0c
DTITLE=Marjorie Thompson - Never Let Me Down
DYEAR=2005
DGENRE=Blues
TTITLE0=Poster child for the blues
TTITLE1=Heart full of love
TTITLE2=Never let me down
TTITLE3=Runnin' blues
TTITLE4=Living with an empty heart
TTITLE5=So long blues
TTITLE6=The party
TTITLE7=Angels gonna carry me home
TTITLE8=Hairdo rag
TTITLE9=Do me like you do
TTITLE10=Money blues
TTITLE11=Once again and more
EXTD=
EXTT0=
EXTT1=
EXTT2=
EXTT3=
EXTT4=
EXTT5=
EXTT6=
EXTT7=
EXTT8=
EXTT9=
EXTT10=
EXTT11=
PLAYORDER=
